<svg id="Capa_1" data-name="Capa 1" xmlns="http://www.w3.org/2000/svg" viewBox="0 0 24 24"><defs><style>.cls-1{fill:#edf7ed;}</style></defs><path class="cls-1" d="M19.1.21H4.9A4.87,4.87,0,0,0,0,5.08V18.92A4.87,4.87,0,0,0,4.9,23.79H19.1A4.87,4.87,0,0,0,24,18.92V5.08A4.87,4.87,0,0,0,19.1.21ZM20.51,14.9a4,4,0,0,1-1.59,1.81,12.32,12.32,0,0,1-6.7,1.88,14,14,0,0,1-5.82-.91,4.3,4.3,0,0,1-2-1.45,2.92,2.92,0,0,1-.35-2.7,2,2,0,0,1,.58-.75,3.52,3.52,0,0,1,1.2-.62,19.07,19.07,0,0,1,3.58-.71c1.44-.17,2.9-.27,4.36-.3a23.16,23.16,0,0,1,4.48.28,2.59,2.59,0,0,1,2.43,2.05A3,3,0,0,1,20.51,14.9Z"/></svg>