<svg id="Capa_1" data-name="Capa 1" xmlns="http://www.w3.org/2000/svg" viewBox="0 0 291.26 280.41"><defs><style>.cls-1{fill:#edf7ed;}</style></defs><path class="cls-1" d="M237.69,106.55H52.62A33.25,33.25,0,0,0,19.37,139.8v64.95A34.2,34.2,0,0,0,53.57,239H237.69a34.2,34.2,0,0,0,34.2-34.2v-64A34.2,34.2,0,0,0,237.69,106.55Zm21.77,98.2a21.8,21.8,0,0,1-21.77,21.78H53.57A21.8,21.8,0,0,1,31.8,204.75V139.8A20.84,20.84,0,0,1,52.62,119H237.69a21.8,21.8,0,0,1,21.77,21.77Zm-79.53-39.4-52.8-27.73a8.39,8.39,0,0,0-12.31,7.45v55.37a8.39,8.39,0,0,0,12.3,7.45l52.8-27.64A8.41,8.41,0,0,0,179.93,165.35Zm-52.68,28.44V151.72l40.11,21.07ZM92.9,52.64H196.7a7.32,7.32,0,0,1,6.21,3.46H214.8a18.51,18.51,0,0,0-18.1-14.65H92.9A18.52,18.52,0,0,0,74.8,56.1H86.7A7.31,7.31,0,0,1,92.9,52.64ZM58.21,93A14.54,14.54,0,0,1,72.73,78.47H216.87A14.54,14.54,0,0,1,231.4,93V96.2h11.18V93a25.71,25.71,0,0,0-25.71-25.71H72.73A25.71,25.71,0,0,0,47,93V96.2H58.21Z"/></svg>