<svg id="Capa_1" data-name="Capa 1" xmlns="http://www.w3.org/2000/svg" viewBox="0 0 291.26 280.41"><defs><style>.cls-1{fill:#edf7ed;}</style></defs><path class="cls-1" d="M121.7,153.33v41.55a15.21,15.21,0,0,0,15.22,15.22h18.66a15.21,15.21,0,0,0,15.22-15.22V153.33a15.21,15.21,0,0,0-15.22-15.22H136.92A15.21,15.21,0,0,0,121.7,153.33Zm35,0v41.55a1.1,1.1,0,0,1-1.1,1.1H136.92a1.1,1.1,0,0,1-1.1-1.1V153.33a1.1,1.1,0,0,1,1.1-1.1h18.66A1.1,1.1,0,0,1,156.68,153.33Zm-11-112.5v-.07l-.07,0-.07,0v.07L19.33,106.18v99.24a34.23,34.23,0,0,0,34.23,34.23H237.7a34.24,34.24,0,0,0,34.23-34.23V106.18Zm113.79,73v91.64a21.82,21.82,0,0,1-21.79,21.79H53.56a21.81,21.81,0,0,1-21.79-21.79V113.74L145.63,54.8l113.86,58.94Z"/></svg>